<svg width="140" height="140" viewBox="0 0 140 140" fill="none" xmlns="http://www.w3.org/2000/svg">
<rect width="140" height="140" rx="20" fill="white"/>
<rect x="93" y="16" width="31" height="16" rx="4" fill="#F6F6F8"/>
<path d="M97.9289 28V20.7273H102.588V21.8317H99.2463V23.8061H102.268V24.9105H99.2463V28H97.9289ZM104.053 28V22.5455H105.3V23.4545H105.357C105.456 23.1397 105.626 22.897 105.868 22.7266C106.112 22.5537 106.39 22.4673 106.702 22.4673C106.773 22.4673 106.853 22.4709 106.94 22.478C107.03 22.4827 107.105 22.491 107.164 22.5028V23.6854C107.11 23.6664 107.023 23.6499 106.905 23.6357C106.789 23.6191 106.676 23.6108 106.567 23.6108C106.333 23.6108 106.122 23.6617 105.935 23.7635C105.751 23.8629 105.605 24.0014 105.499 24.179C105.392 24.3565 105.339 24.5613 105.339 24.7933V28H104.053ZM110.608 28.1065C110.061 28.1065 109.589 27.9929 109.191 27.7656C108.796 27.536 108.492 27.2116 108.279 26.7926C108.066 26.3712 107.959 25.8752 107.959 25.3047C107.959 24.7436 108.066 24.2512 108.279 23.8274C108.494 23.4013 108.795 23.0698 109.181 22.8331C109.567 22.594 110.02 22.4744 110.541 22.4744C110.877 22.4744 111.194 22.5289 111.493 22.6378C111.793 22.7443 112.058 22.91 112.288 23.1349C112.52 23.3598 112.702 23.6463 112.835 23.9943C112.967 24.34 113.034 24.7519 113.034 25.2301V25.6243H108.563V24.7578H111.801C111.799 24.5116 111.746 24.2926 111.642 24.1009C111.538 23.9067 111.392 23.754 111.205 23.6428C111.02 23.5315 110.805 23.4759 110.559 23.4759C110.296 23.4759 110.065 23.5398 109.866 23.6676C109.667 23.7931 109.512 23.9588 109.401 24.1648C109.292 24.3684 109.236 24.5921 109.234 24.8359V25.5923C109.234 25.9096 109.292 26.1818 109.408 26.4091C109.524 26.634 109.686 26.8068 109.895 26.9276C110.103 27.0459 110.347 27.1051 110.626 27.1051C110.813 27.1051 110.982 27.0791 111.134 27.027C111.285 26.9725 111.417 26.8932 111.528 26.7891C111.639 26.6849 111.723 26.5559 111.78 26.402L112.98 26.5369C112.905 26.8542 112.76 27.1312 112.547 27.3679C112.337 27.6023 112.067 27.7846 111.738 27.9148C111.408 28.0426 111.032 28.1065 110.608 28.1065ZM116.936 28.1065C116.389 28.1065 115.917 27.9929 115.519 27.7656C115.124 27.536 114.82 27.2116 114.606 26.7926C114.393 26.3712 114.287 25.8752 114.287 25.3047C114.287 24.7436 114.393 24.2512 114.606 23.8274C114.822 23.4013 115.123 23.0698 115.508 22.8331C115.894 22.594 116.348 22.4744 116.869 22.4744C117.205 22.4744 117.522 22.5289 117.82 22.6378C118.121 22.7443 118.386 22.91 118.616 23.1349C118.848 23.3598 119.03 23.6463 119.163 23.9943C119.295 24.34 119.361 24.7519 119.361 25.2301V25.6243H114.891V24.7578H118.129C118.127 24.5116 118.074 24.2926 117.969 24.1009C117.865 23.9067 117.72 23.754 117.533 23.6428C117.348 23.5315 117.133 23.4759 116.886 23.4759C116.624 23.4759 116.393 23.5398 116.194 23.6676C115.995 23.7931 115.84 23.9588 115.729 24.1648C115.62 24.3684 115.564 24.5921 115.562 24.8359V25.5923C115.562 25.9096 115.62 26.1818 115.736 26.4091C115.852 26.634 116.014 26.8068 116.222 26.9276C116.431 27.0459 116.674 27.1051 116.954 27.1051C117.141 27.1051 117.31 27.0791 117.462 27.027C117.613 26.9725 117.745 26.8932 117.856 26.7891C117.967 26.6849 118.051 26.5559 118.108 26.402L119.308 26.5369C119.232 26.8542 119.088 27.1312 118.875 27.3679C118.664 27.6023 118.394 27.7846 118.065 27.9148C117.736 28.0426 117.36 28.1065 116.936 28.1065Z" fill="#2557D6"/>
<path d="M69.9909 52.9989C66.4386 52.9989 63.9909 55.4469 63.9909 58.9989C63.9909 59.4839 63.9909 60.9689 63.9909 60.9989C63.9909 61.3209 63.8283 61.5399 63.2721 61.9989C63.209 62.0509 62.9445 62.2779 62.8659 62.3429C61.6005 63.3889 60.9777 64.3689 60.9909 65.9989C61.0042 67.6469 62.3476 68.98 63.9909 68.999H67.1669C67.1669 68.999 66.9909 69.61 66.9909 69.999C66.9909 71.656 68.3339 72.999 69.9909 72.999C71.6479 72.999 72.9909 71.656 72.9909 69.999C72.9909 69.61 72.8229 68.999 72.8229 68.999H75.9909C77.6309 69.005 78.9929 67.6539 78.9909 65.9989C78.9889 64.3809 78.3649 63.3839 77.1159 62.3429C77.0339 62.2739 76.7439 62.0529 76.6779 61.9989C76.1339 61.5449 75.9909 61.3169 75.9909 60.9989C75.9909 59.7489 75.9909 58.9989 75.9909 58.9989C75.9909 55.4469 73.5429 52.9989 69.9909 52.9989ZM69.9909 54.9989C72.4389 54.9989 73.9909 56.5509 73.9909 58.9989C73.9909 58.9989 73.9909 59.7489 73.9909 60.9989C73.9909 62.0609 74.4389 62.7309 75.3969 63.5299C75.4729 63.5929 75.7939 63.8449 75.8659 63.9049C76.7039 64.6039 76.9899 65.0769 76.9909 65.9989C76.9919 66.5429 76.5259 67.0009 75.9909 66.9989C75.8019 66.9979 72.8909 66.9979 69.9909 66.9989C67.0912 66.9999 64.2034 67.0009 63.9909 66.9989C63.4327 66.9919 62.9954 66.5539 62.9909 65.9989C62.9835 65.0789 63.2694 64.6049 64.1159 63.9049C64.185 63.8479 64.4807 63.5899 64.5534 63.5299C65.5266 62.7259 65.9909 62.0709 65.9909 60.9989C65.9909 60.9689 65.9909 59.4839 65.9909 58.9989C65.9909 56.5509 67.5432 54.9989 69.9909 54.9989ZM69.9909 68.999C70.5429 68.999 70.9909 69.447 70.9909 69.999C70.9909 70.551 70.5429 70.999 69.9909 70.999C69.4389 70.999 68.9909 70.551 68.9909 69.999C68.9909 69.447 69.4389 68.999 69.9909 68.999Z" fill="#F8F7F7"/>
<path d="M62.8476 109.14C62.5303 109.14 62.2129 109.089 61.8956 108.986C61.5876 108.883 61.3029 108.748 61.0416 108.58C60.7896 108.403 60.5749 108.211 60.3976 108.006C60.2296 107.791 60.1176 107.577 60.0616 107.362L60.4256 107.166V108.958H58.9836V98.64H60.4256V103.33L60.2016 103.204C60.2483 102.989 60.3509 102.784 60.5096 102.588C60.6683 102.383 60.8689 102.201 61.1116 102.042C61.3636 101.874 61.6343 101.743 61.9236 101.65C62.2129 101.547 62.5069 101.496 62.8056 101.496C63.4683 101.496 64.0563 101.659 64.5696 101.986C65.0829 102.313 65.4889 102.765 65.7876 103.344C66.0863 103.913 66.2356 104.567 66.2356 105.304C66.2356 106.041 66.0863 106.699 65.7876 107.278C65.4983 107.857 65.0969 108.314 64.5836 108.65C64.0703 108.977 63.4916 109.14 62.8476 109.14ZM62.6096 107.824C63.0389 107.824 63.4216 107.717 63.7576 107.502C64.0936 107.278 64.3596 106.979 64.5556 106.606C64.7516 106.223 64.8496 105.789 64.8496 105.304C64.8496 104.828 64.7516 104.403 64.5556 104.03C64.3689 103.647 64.1076 103.349 63.7716 103.134C63.4356 102.919 63.0483 102.812 62.6096 102.812C62.1709 102.812 61.7836 102.919 61.4476 103.134C61.1116 103.349 60.8456 103.647 60.6496 104.03C60.4536 104.403 60.3556 104.828 60.3556 105.304C60.3556 105.789 60.4536 106.223 60.6496 106.606C60.8456 106.979 61.1116 107.278 61.4476 107.502C61.7836 107.717 62.1709 107.824 62.6096 107.824ZM71.2319 109.14C70.4759 109.14 69.8039 108.981 69.2159 108.664C68.6373 108.337 68.1799 107.894 67.8439 107.334C67.5173 106.774 67.3539 106.13 67.3539 105.402C67.3539 104.823 67.4473 104.296 67.6339 103.82C67.8206 103.344 68.0773 102.933 68.4039 102.588C68.7399 102.233 69.1366 101.963 69.5939 101.776C70.0606 101.58 70.5646 101.482 71.1059 101.482C71.5819 101.482 72.0253 101.575 72.4359 101.762C72.8466 101.939 73.2013 102.187 73.4999 102.504C73.8079 102.821 74.0413 103.199 74.1999 103.638C74.3679 104.067 74.4473 104.539 74.4379 105.052L74.4239 105.668H68.4179L68.0959 104.52H73.1779L72.9679 104.758V104.422C72.9399 104.114 72.8373 103.839 72.6599 103.596C72.4826 103.353 72.2586 103.162 71.9879 103.022C71.7173 102.882 71.4233 102.812 71.1059 102.812C70.6019 102.812 70.1773 102.91 69.8319 103.106C69.4866 103.293 69.2253 103.573 69.0479 103.946C68.8706 104.31 68.7819 104.763 68.7819 105.304C68.7819 105.817 68.8893 106.265 69.1039 106.648C69.3186 107.021 69.6219 107.311 70.0139 107.516C70.4059 107.721 70.8586 107.824 71.3719 107.824C71.7359 107.824 72.0719 107.763 72.3799 107.642C72.6973 107.521 73.0379 107.301 73.4019 106.984L74.1299 108.006C73.9059 108.23 73.6306 108.426 73.3039 108.594C72.9866 108.762 72.6459 108.897 72.2819 109C71.9273 109.093 71.5773 109.14 71.2319 109.14ZM76.0331 109V98.64H77.4751V109H76.0331ZM79.5467 109V98.64H80.9887V109H79.5467Z" fill="#2A343D"/>
</svg>
